<svg xmlns="http://www.w3.org/2000/svg" style="display: none;">
  <!-- Home icon -->
  <symbol id="icon-home" viewBox="0 0 24 24">
    <path fill="currentColor" d="M10 20v-6h4v6h5v-8h3L12 3 2 12h3v8z"/>
  </symbol>

  <!-- Book/Reading icon -->
  <symbol id="icon-book" viewBox="0 0 24 24">
    <path fill="currentColor" d="M21 4V2h-2V1H5v1H3v2H1v20h22V4h-2zm-4 18H7V4h10v18zm4 0h-2V4h2v18z"/>
    <path fill="currentColor" d="M8 6h6v2H8zm0 3h6v2H8zm0 3h6v2H8z" opacity="0.6"/>
  </symbol>

  <!-- Chat/Message icon -->
  <symbol id="icon-chat" viewBox="0 0 24 24">
    <path fill="currentColor" d="M20 2H4c-1.1 0-2 .9-2 2v18l4-4h14c1.1 0 2-.9 2-2V4c0-1.1-.9-2-2-2zm-2 12H6v-2h12v2zm0-3H6V9h12v2zm0-3H6V6h12v2z"/>
  </symbol>

  <!-- Settings icon -->
  <symbol id="icon-settings" viewBox="0 0 24 24">
    <path fill="currentColor" d="M19.14 12.94c.04-.3.06-.61.06-.94 0-.32-.02-.64-.07-.94l2.03-1.58c.18-.14.23-.41.12-.62l-1.92-3.32c-.12-.22-.37-.29-.59-.22l-2.39.96c-.5-.38-1.03-.7-1.62-.94l-.36-2.54c-.04-.24-.24-.41-.48-.41h-3.84c-.24 0-.43.17-.47.41l-.36 2.54c-.59.24-1.13.57-1.62.94l-2.39-.96c-.22-.08-.47 0-.59.22L2.74 8.87c-.12.21-.08.48.1.62l2.03 1.58c-.05.3-.07.62-.07.94 0 .32.02.64.07.94l-2.03 1.58c-.18.14-.23.41-.12.62l1.92 3.32c.12.22.37.29.59.22l2.39-.96c.5.38 1.03.7 1.62.94l.36 2.54c.05.24.24.41.48.41h3.84c.24 0 .44-.17.47-.41l.36-2.54c.59-.24 1.13-.56 1.62-.94l2.39.96c.22.08.47 0 .59-.22l1.92-3.32c.12-.22.07-.48-.1-.62l-2.03-1.58zM12 15.6c-1.98 0-3.6-1.62-3.6-3.6s1.62-3.6 3.6-3.6 3.6 1.62 3.6 3.6-1.62 3.6-3.6 3.6z"/>
  </symbol>
</svg>
